<svg width="73" height="88" viewBox="0 0 73 88" fill="none" xmlns="http://www.w3.org/2000/svg">
<path d="M48.3389 9.37239C44.4898 9.37239 41.3741 9.37239 41.3741 9.37239L39.2159 2.74497C38.0302 -0.914989 36.097 -0.914989 34.9136 2.74497C33.717 6.40706 32.7562 9.37239 32.7562 9.37239H25.7858C21.9368 9.37239 21.3403 11.2102 24.4538 13.4709C27.5752 15.7279 30.0955 17.5649 30.0955 17.5649L27.9364 24.1923C26.7498 27.8535 28.3109 28.989 31.4307 26.7261C34.5398 24.4642 37.0624 22.6294 37.0624 22.6294L42.6984 26.7261C45.8125 28.9872 47.3703 27.8535 46.1837 24.1923C44.9953 20.5302 44.0329 17.5649 44.0329 17.5649L49.673 13.4709C52.7821 11.2102 52.186 9.37239 48.3389 9.37239Z" fill="#A300FF"/>
<path d="M22.4352 33.0227C22.4352 33.0227 19.8133 34.7824 18.8833 43.3312C23.7864 49.6805 29.8799 48.6425 32.5628 47.7564C32.8066 47.6742 33.1142 47.2766 33.1304 47.0232C33.4866 40.9189 28.4461 32.781 26.6304 30.0645C25.1698 30.6465 23.7481 31.5882 22.4352 33.0227Z" fill="#0084FF"/>
<path d="M48.1294 17.1695L49.0031 19.8624C49.5785 21.6408 49.669 23.155 49.3409 24.4209C59.4951 29.2792 66.5427 39.6227 66.5427 51.6076C66.5427 68.2347 53.0164 81.7604 36.3905 81.7604C36.2131 81.7604 36.039 81.7355 35.8637 81.7321L35.8153 80.6079C35.7929 80.1055 36.1569 79.5541 36.6274 79.3788L42.4614 77.19C42.4614 77.19 45.1976 77.3426 46.3359 75.289C46.9122 74.2536 47.448 73.5302 47.8407 73.0637C48.1629 72.6801 48.1586 72.1327 47.7967 71.7822C46.606 70.6289 44.2085 68.1027 43.982 66.1722C43.6772 63.588 40.0318 61.4596 35.3189 61.1566C35.3189 61.1566 32.8165 59.2327 32.6482 55.9126C32.6213 55.4094 32.2456 54.9094 31.7568 55.0308C30.4971 55.3396 28.3596 56.9572 28.2534 64.342C28.2534 64.342 21.5616 67.7333 20.9379 77.4515C20.4052 77.1327 19.8716 76.8179 19.3606 76.4658C19.6038 73.512 20.3504 71.1588 21.2249 69.3825C22.9608 65.8534 25.3977 63.8912 26.6407 63.0631C26.9085 55.7738 29.2738 53.644 31.249 53.1563C31.8555 53.0068 32.4922 53.1366 32.9966 53.5134C33.5709 53.9411 33.9366 54.6452 33.9755 55.4017C34.077 57.3607 35.2349 58.7357 35.7845 59.2823C36.6743 59.3645 37.5246 59.5065 38.3235 59.7008L38.3983 59.0133L39.0087 53.0752C39.1125 52.0736 40.0142 51.2274 41.0108 51.0854C44.7965 50.534 53.2319 48.2913 53.7808 39.178C53.8414 38.1715 52.9943 37.1607 52.0145 36.9223L43.9845 34.9617C43.9845 34.9617 43.7553 33.0235 41.4766 32.2268C39.8158 31.6442 34.0947 28.3583 28.4664 29.5175C30.5942 32.7568 35.3283 40.7416 34.9543 47.1285C34.8983 48.1333 34.0994 49.1706 33.1403 49.4869C32.2185 49.7924 30.5624 50.2193 28.5498 50.2193C25.6343 50.2193 21.9731 49.3232 18.674 45.8754C18.6092 46.9698 18.5722 48.1557 18.566 49.4371C18.5286 56.0496 10.1296 62.319 10.1296 62.319L9.12644 64.3958C7.29664 60.5063 6.24242 56.1841 6.24242 51.6076C6.24242 39.3164 13.6433 28.7367 24.2143 24.0467C23.9947 22.8552 24.1009 21.4734 24.6232 19.8612L25.6055 16.8473C10.7874 21.454 3.05176e-05 35.2933 3.05176e-05 51.6078C3.05176e-05 71.6735 16.3261 88.0001 36.3923 88.0001C56.4586 88.0001 72.7841 71.6735 72.7841 51.6078C72.7823 35.6479 62.4522 22.0652 48.1294 17.1695ZM40.5204 66.6247C41.0869 66.6247 41.5469 67.0823 41.5469 67.6511C41.5469 68.2191 41.0869 68.6769 40.5204 68.6769C39.9541 68.6769 39.4948 68.2192 39.4948 67.6511C39.4948 67.0823 39.9541 66.6247 40.5204 66.6247ZM39.4948 36.9879C40.0628 36.9879 40.5204 37.4462 40.5204 38.0138C40.5204 38.5814 40.0629 39.0391 39.4948 39.0391C38.9262 39.0391 38.4677 38.5816 38.4677 38.0138C38.4685 37.4462 38.9287 36.9879 39.4948 36.9879Z" fill="#0084FF"/>
</svg>
