<svg width="247" height="88" viewBox="0 0 247 88" fill="none" xmlns="http://www.w3.org/2000/svg">
<path fill-rule="evenodd" clip-rule="evenodd" d="M49.6112 19.8624L48.7376 17.1695C63.0603 22.0652 73.3904 35.6479 73.3922 51.6078C73.3922 71.6735 57.0667 88.0001 37.0004 88.0001C16.9342 88.0001 0.608154 71.6735 0.608154 51.6078C0.608154 35.2933 11.3955 21.454 26.2136 16.8473L25.2313 19.8612C24.7091 21.4734 24.6028 22.8552 24.8224 24.0467C14.2514 28.7367 6.85054 39.3164 6.85054 51.6076C6.85054 56.1841 7.90476 60.5063 9.73456 64.3958L10.7377 62.319C10.7377 62.319 19.1368 56.0496 19.1741 49.4371C19.1803 48.1557 19.2174 46.9698 19.2821 45.8754C22.5812 49.3232 26.2424 50.2193 29.158 50.2193C31.1705 50.2193 32.8266 49.7924 33.7485 49.4869C34.7075 49.1706 35.5064 48.1333 35.5624 47.1285C35.9364 40.7416 31.2023 32.7568 29.0745 29.5175C33.7449 28.5556 38.4791 30.6544 40.9043 31.7296C41.4017 31.9501 41.802 32.1276 42.0847 32.2268C44.3634 33.0235 44.5926 34.9617 44.5926 34.9617L52.6226 36.9223C53.6024 37.1607 54.4496 38.1715 54.3889 39.178C53.84 48.2913 45.4046 50.534 41.6189 51.0854C40.6223 51.2274 39.7206 52.0736 39.6169 53.0752L39.0064 59.0133L38.9317 59.7008C38.1328 59.5065 37.2825 59.3645 36.3926 59.2823C35.843 58.7357 34.6851 57.3607 34.5837 55.4017C34.5447 54.6452 34.1791 53.9411 33.6047 53.5134C33.1003 53.1366 32.4637 53.0068 31.8571 53.1563C29.8819 53.644 27.5166 55.7738 27.2488 63.0631C26.0058 63.8912 23.5689 65.8534 21.8331 69.3825C20.9585 71.1588 20.212 73.512 19.9687 76.4658C20.4372 76.7886 20.9246 77.08 21.4129 77.3719C21.4573 77.3984 21.5017 77.425 21.5461 77.4515C22.1697 67.7333 28.8615 64.342 28.8615 64.342C28.9678 56.9572 31.1052 55.3396 32.3649 55.0308C32.8537 54.9094 33.2295 55.4094 33.2563 55.9126C33.4246 59.2327 35.927 61.1566 35.927 61.1566C40.6399 61.4596 44.2853 63.588 44.5901 66.1722C44.8166 68.1027 47.2142 70.6289 48.4048 71.7822C48.7667 72.1328 48.771 72.6801 48.4488 73.0637C48.0561 73.5302 47.5204 74.2536 46.9441 75.289C45.8057 77.3426 43.0695 77.19 43.0695 77.19L37.2355 79.3788C36.765 79.5541 36.401 80.1055 36.4234 80.6079L36.4718 81.7321C36.5528 81.7337 36.6336 81.7398 36.7145 81.746C36.8088 81.7532 36.9032 81.7604 36.9987 81.7604C53.6245 81.7604 67.1509 68.2347 67.1509 51.6076C67.1509 39.6227 60.1032 29.2792 49.9491 24.4209C50.2772 23.155 50.1866 21.6408 49.6112 19.8624ZM42.155 67.6511C42.155 67.0823 41.695 66.6247 41.1285 66.6247C40.5622 66.6247 40.103 67.0823 40.103 67.6511C40.103 68.2192 40.5622 68.6769 41.1285 68.6769C41.695 68.6769 42.155 68.2191 42.155 67.6511ZM41.1285 38.0138C41.1285 37.4462 40.6709 36.9879 40.103 36.9879C39.5368 36.9879 39.0767 37.4462 39.0758 38.0138C39.0758 38.5816 39.5343 39.0391 40.103 39.0391C40.6711 39.0391 41.1285 38.5814 41.1285 38.0138ZM19.4914 43.3312C20.4214 34.7824 23.0434 33.0227 23.0434 33.0227C24.3563 31.5882 25.7779 30.6465 27.2385 30.0645C29.0543 32.781 34.0947 40.9189 33.7385 47.0232C33.7223 47.2766 33.4147 47.6742 33.171 47.7564C30.488 48.6425 24.3945 49.6805 19.4914 43.3312Z" fill="#0084FF"/>
<path d="M48.947 9.37239C45.0979 9.37239 41.9823 9.37239 41.9823 9.37239L39.824 2.74497C38.6383 -0.914989 36.7051 -0.914989 35.5217 2.74497C34.3252 6.40706 33.3644 9.37239 33.3644 9.37239H26.3939C22.545 9.37239 21.9484 11.2102 25.0619 13.4709C28.1833 15.7279 30.7037 17.5649 30.7037 17.5649L28.5445 24.1923C27.3579 27.8535 28.919 28.989 32.0388 26.7261C35.1479 24.4642 37.6706 22.6294 37.6706 22.6294L43.3066 26.7261C46.4207 28.9872 47.9784 27.8535 46.7918 24.1923C45.6034 20.5302 44.641 17.5649 44.641 17.5649L50.2811 13.4709C53.3902 11.2102 52.7942 9.37239 48.947 9.37239Z" fill="#A300FF"/>
<path d="M86.657 55.0001H81.7138L89.2457 33.1819H95.1903L102.712 55.0001H97.7685L92.3033 38.1677H92.1328L86.657 55.0001ZM86.348 46.4241H98.0241V50.025H86.348V46.4241ZM113.072 55.0001H105.338V33.1819H113.136C115.331 33.1819 117.22 33.6187 118.804 34.4923C120.387 35.3588 121.605 36.6052 122.458 38.2317C123.317 39.8581 123.747 41.8041 123.747 44.0697C123.747 46.3425 123.317 48.2956 122.458 49.9291C121.605 51.5626 120.38 52.8162 118.782 53.6898C117.191 54.5633 115.288 55.0001 113.072 55.0001ZM109.951 51.0477H112.88C114.244 51.0477 115.391 50.8062 116.321 50.3233C117.259 49.8332 117.962 49.0768 118.431 48.0541C118.907 47.0243 119.145 45.6961 119.145 44.0697C119.145 42.4575 118.907 41.14 118.431 40.1173C117.962 39.0946 117.262 38.3417 116.332 37.8588C115.402 37.3758 114.255 37.1344 112.891 37.1344H109.951V51.0477ZM147.214 44.091C147.214 46.4703 146.763 48.4944 145.861 50.1635C144.966 51.8325 143.744 53.1074 142.196 53.988C140.655 54.8616 138.922 55.2984 136.997 55.2984C135.058 55.2984 133.318 54.8581 131.777 53.9774C130.236 53.0967 129.018 51.8219 128.123 50.1528C127.228 48.4838 126.78 46.4632 126.78 44.091C126.78 41.7118 127.228 39.6876 128.123 38.0186C129.018 36.3496 130.236 35.0782 131.777 34.2047C133.318 33.324 135.058 32.8836 136.997 32.8836C138.922 32.8836 140.655 33.324 142.196 34.2047C143.744 35.0782 144.966 36.3496 145.861 38.0186C146.763 39.6876 147.214 41.7118 147.214 44.091ZM142.537 44.091C142.537 42.5498 142.306 41.2501 141.844 40.1919C141.39 39.1336 140.747 38.3311 139.916 37.7842C139.085 37.2373 138.112 36.9639 136.997 36.9639C135.882 36.9639 134.909 37.2373 134.078 37.7842C133.247 38.3311 132.601 39.1336 132.139 40.1919C131.684 41.2501 131.457 42.5498 131.457 44.091C131.457 45.6322 131.684 46.9319 132.139 47.9902C132.601 49.0484 133.247 49.851 134.078 50.3978C134.909 50.9447 135.882 51.2182 136.997 51.2182C138.112 51.2182 139.085 50.9447 139.916 50.3978C140.747 49.851 141.39 49.0484 141.844 47.9902C142.306 46.9319 142.537 45.6322 142.537 44.091ZM150.631 55.0001V33.1819H159.239C160.893 33.1819 162.303 33.498 163.468 34.1301C164.633 34.7551 165.521 35.6251 166.131 36.7402C166.749 37.8481 167.058 39.1265 167.058 40.5754C167.058 42.0243 166.746 43.3027 166.121 44.4106C165.496 45.5186 164.59 46.3815 163.404 46.9994C162.225 47.6173 160.798 47.9263 159.121 47.9263H153.635V44.2295H158.376C159.263 44.2295 159.995 44.0768 160.57 43.7714C161.153 43.4589 161.586 43.0292 161.87 42.4824C162.161 41.9284 162.307 41.2927 162.307 40.5754C162.307 39.851 162.161 39.2189 161.87 38.6791C161.586 38.1322 161.153 37.7096 160.57 37.4113C159.988 37.1059 159.249 36.9532 158.354 36.9532H155.244V55.0001H150.631ZM169.224 36.9852V33.1819H187.143V36.9852H180.463V55.0001H175.903V36.9852H169.224Z" fill="#0084FF"/>
<path d="M190.094 55.0001V33.1819H198.702C200.356 33.1819 201.766 33.498 202.931 34.1301C204.096 34.7551 204.983 35.6251 205.594 36.7402C206.212 37.8481 206.521 39.1265 206.521 40.5754C206.521 42.0243 206.209 43.3027 205.584 44.4106C204.959 45.5186 204.053 46.3815 202.867 46.9994C201.688 47.6173 200.26 47.9263 198.584 47.9263H193.098V44.2295H197.839C198.726 44.2295 199.458 44.0768 200.033 43.7714C200.616 43.4589 201.049 43.0292 201.333 42.4824C201.624 41.9284 201.77 41.2927 201.77 40.5754C201.77 39.851 201.624 39.2189 201.333 38.6791C201.049 38.1322 200.616 37.7096 200.033 37.4113C199.451 37.1059 198.712 36.9532 197.817 36.9532H194.706V55.0001H190.094ZM209.517 55.0001V33.1819H224.219V36.9852H214.13V42.1841H223.463V45.9873H214.13V51.1969H224.262V55.0001H209.517ZM227.056 36.9852V33.1819H244.975V36.9852H238.295V55.0001H233.735V36.9852H227.056Z" fill="#A300FF"/>
</svg>
