<svg width="220" height="96" viewBox="0 0 220 96" fill="none" xmlns="http://www.w3.org/2000/svg">
<g filter="url(#filter0_d_77_10)">
<path d="M52.3389 9.37239C48.4898 9.37239 45.3741 9.37239 45.3741 9.37239L43.2159 2.74497C42.0302 -0.914989 40.097 -0.914989 38.9136 2.74497C37.717 6.40706 36.7562 9.37239 36.7562 9.37239H29.7858C25.9368 9.37239 25.3403 11.2102 28.4538 13.4709C31.5752 15.7279 34.0955 17.5649 34.0955 17.5649L31.9364 24.1923C30.7498 27.8535 32.3109 28.989 35.4307 26.7261C38.5398 24.4642 41.0624 22.6294 41.0624 22.6294L46.6984 26.7261C49.8125 28.9872 51.3703 27.8535 50.1837 24.1923C48.9953 20.5302 48.0329 17.5649 48.0329 17.5649L53.673 13.4709C56.7821 11.2102 56.186 9.37239 52.3389 9.37239Z" fill="#A300FF"/>
<path d="M26.4352 33.0227C26.4352 33.0227 23.8133 34.7824 22.8833 43.3312C27.7864 49.6805 33.8799 48.6425 36.5628 47.7564C36.8066 47.6742 37.1142 47.2766 37.1304 47.0232C37.4866 40.9189 32.4461 32.781 30.6304 30.0645C29.1698 30.6465 27.7481 31.5882 26.4352 33.0227Z" fill="#0084FF"/>
<path d="M52.1294 17.1695L53.0031 19.8624C53.5785 21.6408 53.669 23.155 53.3409 24.4209C63.4951 29.2792 70.5427 39.6227 70.5427 51.6076C70.5427 68.2347 57.0164 81.7604 40.3905 81.7604C40.2131 81.7604 40.039 81.7355 39.8637 81.7321L39.8153 80.6079C39.7929 80.1055 40.1569 79.5541 40.6274 79.3788L46.4614 77.19C46.4614 77.19 49.1976 77.3426 50.3359 75.289C50.9122 74.2536 51.448 73.5302 51.8407 73.0637C52.1629 72.6801 52.1586 72.1327 51.7967 71.7822C50.606 70.6289 48.2085 68.1027 47.982 66.1722C47.6772 63.588 44.0318 61.4596 39.3189 61.1566C39.3189 61.1566 36.8165 59.2327 36.6482 55.9126C36.6213 55.4094 36.2456 54.9094 35.7568 55.0308C34.4971 55.3396 32.3596 56.9572 32.2534 64.342C32.2534 64.342 25.5616 67.7333 24.9379 77.4515C24.4052 77.1327 23.8716 76.8179 23.3606 76.4658C23.6038 73.512 24.3504 71.1588 25.2249 69.3825C26.9608 65.8534 29.3977 63.8912 30.6407 63.0631C30.9085 55.7738 33.2738 53.644 35.249 53.1563C35.8555 53.0068 36.4922 53.1366 36.9966 53.5134C37.5709 53.9411 37.9366 54.6452 37.9755 55.4017C38.077 57.3607 39.2349 58.7357 39.7845 59.2823C40.6743 59.3645 41.5246 59.5065 42.3235 59.7008L42.3983 59.0133L43.0087 53.0752C43.1125 52.0736 44.0142 51.2274 45.0108 51.0854C48.7965 50.534 57.2319 48.2913 57.7808 39.178C57.8414 38.1715 56.9943 37.1607 56.0145 36.9223L47.9845 34.9617C47.9845 34.9617 47.7553 33.0235 45.4766 32.2268C43.8158 31.6442 38.0947 28.3583 32.4664 29.5175C34.5942 32.7568 39.3283 40.7416 38.9543 47.1285C38.8983 48.1333 38.0994 49.1706 37.1403 49.4869C36.2185 49.7924 34.5624 50.2193 32.5498 50.2193C29.6343 50.2193 25.9731 49.3232 22.674 45.8754C22.6092 46.9698 22.5722 48.1557 22.566 49.4371C22.5286 56.0496 14.1296 62.319 14.1296 62.319L13.1264 64.3958C11.2966 60.5063 10.2424 56.1841 10.2424 51.6076C10.2424 39.3164 17.6433 28.7367 28.2143 24.0467C27.9947 22.8552 28.1009 21.4734 28.6232 19.8612L29.6055 16.8473C14.7874 21.454 4.00003 35.2933 4.00003 51.6078C4.00003 71.6735 20.3261 88.0001 40.3923 88.0001C60.4586 88.0001 76.7841 71.6735 76.7841 51.6078C76.7823 35.6479 66.4522 22.0652 52.1294 17.1695ZM44.5204 66.6247C45.0869 66.6247 45.5469 67.0823 45.5469 67.6511C45.5469 68.2191 45.0869 68.6769 44.5204 68.6769C43.9541 68.6769 43.4948 68.2192 43.4948 67.6511C43.4948 67.0823 43.9541 66.6247 44.5204 66.6247ZM43.4948 36.9879C44.0628 36.9879 44.5204 37.4462 44.5204 38.0138C44.5204 38.5814 44.0629 39.0391 43.4948 39.0391C42.9262 39.0391 42.4677 38.5816 42.4677 38.0138C42.4685 37.4462 42.9287 36.9879 43.4948 36.9879Z" fill="#0084FF"/>
<path d="M87.9288 54H85.1589L93.1703 32.1818H95.8975L103.909 54H101.139L94.6191 35.6335H94.4487L87.9288 54ZM88.9515 45.4773H100.116V47.821H88.9515V45.4773ZM113.145 54.3409C111.782 54.3409 110.578 53.9964 109.534 53.3075C108.49 52.6115 107.673 51.6314 107.084 50.3672C106.494 49.0959 106.199 47.5938 106.199 45.8608C106.199 44.142 106.494 42.6506 107.084 41.3864C107.673 40.1222 108.493 39.1456 109.545 38.4567C110.596 37.7678 111.81 37.4233 113.188 37.4233C114.253 37.4233 115.095 37.6009 115.713 37.956C116.338 38.304 116.814 38.7017 117.14 39.1491C117.474 39.5895 117.733 39.9517 117.918 40.2358H118.131V32.1818H120.645V54H118.216V51.4858H117.918C117.733 51.7841 117.471 52.1605 117.13 52.6151C116.789 53.0625 116.302 53.4638 115.67 53.8189C115.038 54.1669 114.197 54.3409 113.145 54.3409ZM113.486 52.0824C114.495 52.0824 115.347 51.8196 116.043 51.294C116.739 50.7614 117.268 50.0263 117.63 49.0888C117.993 48.1442 118.174 47.054 118.174 45.8182C118.174 44.5966 117.996 43.5277 117.641 42.6115C117.286 41.6882 116.76 40.9709 116.064 40.4595C115.368 39.9411 114.509 39.6818 113.486 39.6818C112.421 39.6818 111.533 39.9553 110.823 40.5021C110.12 41.0419 109.591 41.777 109.236 42.7074C108.888 43.6307 108.714 44.6676 108.714 45.8182C108.714 46.983 108.891 48.0412 109.246 48.9929C109.608 49.9375 110.141 50.6903 110.844 51.2514C111.554 51.8054 112.435 52.0824 113.486 52.0824ZM132.247 54.3409C130.77 54.3409 129.474 53.9893 128.358 53.2862C127.251 52.5831 126.384 51.5994 125.759 50.3352C125.141 49.071 124.832 47.5937 124.832 45.9034C124.832 44.1989 125.141 42.7109 125.759 41.4396C126.384 40.1683 127.251 39.1811 128.358 38.478C129.474 37.7749 130.77 37.4233 132.247 37.4233C133.724 37.4233 135.017 37.7749 136.125 38.478C137.24 39.1811 138.106 40.1683 138.724 41.4396C139.349 42.7109 139.662 44.1989 139.662 45.9034C139.662 47.5937 139.349 49.071 138.724 50.3352C138.106 51.5994 137.24 52.5831 136.125 53.2862C135.017 53.9893 133.724 54.3409 132.247 54.3409ZM132.247 52.0824C133.369 52.0824 134.292 51.7947 135.017 51.2195C135.741 50.6442 136.277 49.8878 136.626 48.9503C136.974 48.0128 137.148 46.9972 137.148 45.9034C137.148 44.8097 136.974 43.7905 136.626 42.8459C136.277 41.9013 135.741 41.1378 135.017 40.5554C134.292 39.973 133.369 39.6818 132.247 39.6818C131.125 39.6818 130.202 39.973 129.477 40.5554C128.753 41.1378 128.216 41.9013 127.868 42.8459C127.52 43.7905 127.346 44.8097 127.346 45.9034C127.346 46.9972 127.52 48.0128 127.868 48.9503C128.216 49.8878 128.753 50.6442 129.477 51.2195C130.202 51.7947 131.125 52.0824 132.247 52.0824ZM143.5 60.1364V37.6364H145.929V40.2358H146.227C146.412 39.9517 146.667 39.5895 146.994 39.1491C147.328 38.7017 147.804 38.304 148.421 37.956C149.046 37.6009 149.892 37.4233 150.957 37.4233C152.335 37.4233 153.549 37.7678 154.6 38.4567C155.652 39.1456 156.472 40.1222 157.061 41.3864C157.651 42.6506 157.946 44.142 157.946 45.8608C157.946 47.5938 157.651 49.0959 157.061 50.3672C156.472 51.6314 155.655 52.6115 154.611 53.3075C153.567 53.9964 152.363 54.3409 151 54.3409C149.948 54.3409 149.107 54.1669 148.475 53.8189C147.843 53.4638 147.356 53.0625 147.015 52.6151C146.674 52.1605 146.412 51.7841 146.227 51.4858H146.014V60.1364H143.5ZM145.971 45.8182C145.971 47.054 146.152 48.1442 146.515 49.0888C146.877 50.0263 147.406 50.7614 148.102 51.294C148.798 51.8196 149.65 52.0824 150.659 52.0824C151.71 52.0824 152.587 51.8054 153.29 51.2514C154 50.6903 154.533 49.9375 154.888 48.9929C155.25 48.0412 155.431 46.983 155.431 45.8182C155.431 44.6676 155.254 43.6307 154.899 42.7074C154.551 41.777 154.022 41.0419 153.311 40.5021C152.608 39.9553 151.724 39.6818 150.659 39.6818C149.636 39.6818 148.777 39.9411 148.081 40.4595C147.385 40.9709 146.859 41.6882 146.504 42.6115C146.149 43.5277 145.971 44.5966 145.971 45.8182ZM168.897 37.6364V39.767H160.417V37.6364H168.897ZM162.889 33.7159H165.403V49.3125C165.403 50.0227 165.506 50.5554 165.712 50.9105C165.925 51.2585 166.195 51.4929 166.522 51.6136C166.855 51.7273 167.207 51.7841 167.576 51.7841C167.853 51.7841 168.081 51.7699 168.258 51.7415C168.436 51.706 168.578 51.6776 168.684 51.6562L169.196 53.9148C169.025 53.9787 168.787 54.0426 168.482 54.1065C168.176 54.1776 167.789 54.2131 167.321 54.2131C166.61 54.2131 165.914 54.0604 165.233 53.755C164.558 53.4496 163.997 52.9844 163.549 52.3594C163.109 51.7344 162.889 50.946 162.889 49.9943V33.7159Z" fill="#0084FF"/>
<path d="M172.679 60.1364V37.6364H175.108V40.2358H175.407C175.591 39.9517 175.847 39.5895 176.174 39.1491C176.507 38.7017 176.983 38.304 177.601 37.956C178.226 37.6009 179.071 37.4233 180.137 37.4233C181.515 37.4233 182.729 37.7678 183.78 38.4567C184.831 39.1456 185.652 40.1222 186.241 41.3864C186.831 42.6506 187.125 44.142 187.125 45.8608C187.125 47.5938 186.831 49.0959 186.241 50.3672C185.652 51.6314 184.835 52.6115 183.791 53.3075C182.747 53.9964 181.543 54.3409 180.179 54.3409C179.128 54.3409 178.287 54.1669 177.654 53.8189C177.022 53.4638 176.536 53.0625 176.195 52.6151C175.854 52.1605 175.591 51.7841 175.407 51.4858H175.194V60.1364H172.679ZM175.151 45.8182C175.151 47.054 175.332 48.1442 175.694 49.0888C176.056 50.0263 176.586 50.7614 177.282 51.294C177.978 51.8196 178.83 52.0824 179.838 52.0824C180.89 52.0824 181.767 51.8054 182.47 51.2514C183.18 50.6903 183.713 49.9375 184.068 48.9929C184.43 48.0412 184.611 46.983 184.611 45.8182C184.611 44.6676 184.434 43.6307 184.078 42.7074C183.73 41.777 183.201 41.0419 182.491 40.5021C181.788 39.9553 180.904 39.6818 179.838 39.6818C178.816 39.6818 177.956 39.9411 177.26 40.4595C176.564 40.9709 176.039 41.6882 175.684 42.6115C175.328 43.5277 175.151 44.5966 175.151 45.8182ZM197.821 54.3409C196.245 54.3409 194.885 53.9929 193.741 53.2969C192.605 52.5938 191.728 51.6136 191.11 50.3565C190.499 49.0923 190.194 47.6222 190.194 45.946C190.194 44.2699 190.499 42.7926 191.11 41.5142C191.728 40.2287 192.587 39.2273 193.688 38.5099C194.796 37.7855 196.088 37.4233 197.566 37.4233C198.418 37.4233 199.26 37.5653 200.091 37.8494C200.921 38.1335 201.678 38.5952 202.36 39.2344C203.042 39.8665 203.585 40.7045 203.99 41.7486C204.395 42.7926 204.597 44.0781 204.597 45.6051V46.6705H191.983V44.4972H202.04C202.04 43.5739 201.855 42.75 201.486 42.0256C201.124 41.3011 200.605 40.7294 199.931 40.3104C199.263 39.8913 198.475 39.6818 197.566 39.6818C196.564 39.6818 195.698 39.9304 194.966 40.4276C194.242 40.9176 193.684 41.5568 193.294 42.3452C192.903 43.1335 192.708 43.9787 192.708 44.8807V46.3295C192.708 47.5653 192.921 48.6129 193.347 49.4723C193.78 50.3246 194.38 50.9744 195.147 51.4219C195.914 51.8622 196.806 52.0824 197.821 52.0824C198.482 52.0824 199.078 51.9901 199.611 51.8054C200.151 51.6136 200.616 51.3295 201.007 50.9531C201.397 50.5696 201.699 50.0937 201.912 49.5256L204.341 50.2074C204.086 51.0312 203.656 51.7557 203.052 52.3807C202.448 52.9986 201.703 53.4815 200.815 53.8295C199.927 54.1705 198.929 54.3409 197.821 54.3409ZM215.538 37.6364V39.767H207.058V37.6364H215.538ZM209.529 33.7159H212.044V49.3125C212.044 50.0227 212.147 50.5554 212.353 50.9105C212.566 51.2585 212.836 51.4929 213.162 51.6136C213.496 51.7273 213.848 51.7841 214.217 51.7841C214.494 51.7841 214.721 51.7699 214.899 51.7415C215.076 51.706 215.218 51.6776 215.325 51.6562L215.836 53.9148C215.666 53.9787 215.428 54.0426 215.122 54.1065C214.817 54.1776 214.43 54.2131 213.961 54.2131C213.251 54.2131 212.555 54.0604 211.873 53.755C211.198 53.4496 210.637 52.9844 210.19 52.3594C209.75 51.7344 209.529 50.946 209.529 49.9943V33.7159Z" fill="#A300FF"/>
</g>
<defs>
<filter id="filter0_d_77_10" x="3.05176e-05" y="0" width="219.836" height="96.0001" filterUnits="userSpaceOnUse" color-interpolation-filters="sRGB">
<feFlood flood-opacity="0" result="BackgroundImageFix"/>
<feColorMatrix in="SourceAlpha" type="matrix" values="0 0 0 0 0 0 0 0 0 0 0 0 0 0 0 0 0 0 127 0" result="hardAlpha"/>
<feOffset dy="4"/>
<feGaussianBlur stdDeviation="2"/>
<feComposite in2="hardAlpha" operator="out"/>
<feColorMatrix type="matrix" values="0 0 0 0 0 0 0 0 0 0 0 0 0 0 0 0 0 0 0.25 0"/>
<feBlend mode="normal" in2="BackgroundImageFix" result="effect1_dropShadow_77_10"/>
<feBlend mode="normal" in="SourceGraphic" in2="effect1_dropShadow_77_10" result="shape"/>
</filter>
</defs>
</svg>
