<svg width="24" height="24" viewBox="0 0 24 24" fill="none" xmlns="http://www.w3.org/2000/svg">
<path fill-rule="evenodd" clip-rule="evenodd" d="M9.50003 11.2778C12.6143 11.2778 15.1389 8.75316 15.1389 5.63889C15.1389 2.52462 12.6143 0 9.50003 0C6.38576 0 3.86115 2.52462 3.86115 5.63889C3.86115 8.75316 6.38576 11.2778 9.50003 11.2778ZM20.6303 17.0313C19.3359 15.6288 17.7651 14.5096 16.0168 13.7441C14.2686 12.9786 12.3807 12.5834 10.4722 12.5834C8.56371 12.5834 6.67588 12.9786 4.92763 13.7441C3.17937 14.5096 1.60858 15.6288 0.314167 17.0313C0.114322 17.2523 0.00253129 17.5389 0 17.8368V22.6702C0.00423597 22.9879 0.13341 23.2911 0.359559 23.5142C0.585708 23.7373 0.890635 23.8624 1.20833 23.8624H19.7361C20.0566 23.8624 20.3639 23.7351 20.5905 23.5085C20.8171 23.2819 20.9444 22.9745 20.9444 22.6541V17.8207C20.938 17.5284 20.8265 17.2481 20.6303 17.0313ZM21.325 6.17508C21.1062 5.95629 20.8094 5.83337 20.5 5.83337C20.1906 5.83337 19.8938 5.95629 19.675 6.17508C19.4562 6.39388 19.3333 6.69062 19.3333 7.00004V8.16671H18.1667C17.8572 8.16671 17.5605 8.28962 17.3417 8.50842C17.1229 8.72721 17 9.02395 17 9.33337C17 9.64279 17.1229 9.93954 17.3417 10.1583C17.5605 10.3771 17.8572 10.5 18.1667 10.5H19.3333V11.6667C19.3333 11.9761 19.4562 12.2729 19.675 12.4917C19.8938 12.7105 20.1906 12.8334 20.5 12.8334C20.8094 12.8334 21.1062 12.7105 21.325 12.4917C21.5438 12.2729 21.6667 11.9761 21.6667 11.6667V10.5H22.8333C23.1428 10.5 23.4395 10.3771 23.6583 10.1583C23.8771 9.93954 24 9.64279 24 9.33337C24 9.02395 23.8771 8.72721 23.6583 8.50842C23.4395 8.28962 23.1428 8.16671 22.8333 8.16671H21.6667V7.00004C21.6667 6.69062 21.5438 6.39388 21.325 6.17508Z" fill="#0D0D0D"/>
</svg>
