<svg width="247" height="88" viewBox="0 0 247 88" fill="none" xmlns="http://www.w3.org/2000/svg">
<path fill-rule="evenodd" clip-rule="evenodd" d="M49.6112 19.8623L48.7376 17.1694C63.0603 22.0651 73.3904 35.6478 73.3922 51.6077C73.3922 71.6734 57.0667 88 37.0004 88C16.9342 88 0.608154 71.6734 0.608154 51.6077C0.608154 35.2932 11.3955 21.4539 26.2136 16.8472L25.2313 19.8611C24.7091 21.4733 24.6028 22.8551 24.8224 24.0466C14.2514 28.7366 6.85054 39.3163 6.85054 51.6075C6.85054 56.184 7.90476 60.5062 9.73456 64.3957L10.7377 62.3189C10.7377 62.3189 19.1368 56.0495 19.1741 49.437C19.1803 48.1555 19.2174 46.9697 19.2821 45.8752C22.5812 49.3231 26.2424 50.2191 29.158 50.2191C31.1705 50.2191 32.8266 49.7923 33.7485 49.4868C34.7075 49.1704 35.5064 48.1331 35.5624 47.1284C35.9364 40.7415 31.2023 32.7567 29.0745 29.5173C33.7449 28.5555 38.4791 30.6543 40.9043 31.7295C41.4017 31.95 41.802 32.1275 42.0847 32.2266C44.3634 33.0234 44.5926 34.9616 44.5926 34.9616L52.6226 36.9221C53.6024 37.1606 54.4496 38.1714 54.3889 39.1779C53.84 48.2911 45.4046 50.5339 41.6189 51.0853C40.6223 51.2273 39.7206 52.0735 39.6169 53.0751L39.0064 59.0132L38.9317 59.7007C38.1328 59.5064 37.2825 59.3644 36.3926 59.2822C35.843 58.7356 34.6851 57.3606 34.5837 55.4016C34.5447 54.6451 34.1791 53.941 33.6047 53.5133C33.1003 53.1364 32.4637 53.0067 31.8571 53.1562C29.8819 53.6439 27.5166 55.7737 27.2488 63.063C26.0058 63.8911 23.5689 65.8532 21.8331 69.3824C20.9585 71.1587 20.212 73.5119 19.9687 76.4657C20.4372 76.7885 20.9246 77.0799 21.4129 77.3718C21.4573 77.3983 21.5017 77.4248 21.5461 77.4514C22.1697 67.7332 28.8615 64.3419 28.8615 64.3419C28.9678 56.9571 31.1052 55.3395 32.3649 55.0306C32.8537 54.9093 33.2295 55.4093 33.2563 55.9124C33.4246 59.2326 35.927 61.1565 35.927 61.1565C40.6399 61.4595 44.2853 63.5879 44.5901 66.1721C44.8166 68.1026 47.2142 70.6288 48.4048 71.7821C48.7667 72.1326 48.771 72.6799 48.4488 73.0635C48.0561 73.5301 47.5204 74.2535 46.9441 75.2889C45.8057 77.3425 43.0695 77.1898 43.0695 77.1898L37.2355 79.3787C36.765 79.554 36.401 80.1054 36.4234 80.6078L36.4718 81.732C36.5528 81.7335 36.6336 81.7397 36.7145 81.7459C36.8088 81.753 36.9032 81.7603 36.9987 81.7603C53.6245 81.7603 67.1509 68.2346 67.1509 51.6075C67.1509 39.6225 60.1032 29.2791 49.9491 24.4208C50.2772 23.1549 50.1866 21.6407 49.6112 19.8623ZM42.155 67.651C42.155 67.0822 41.695 66.6245 41.1285 66.6245C40.5622 66.6245 40.103 67.0822 40.103 67.651C40.103 68.2191 40.5622 68.6768 41.1285 68.6768C41.695 68.6768 42.155 68.2189 42.155 67.651ZM41.1285 38.0137C41.1285 37.4461 40.6709 36.9878 40.103 36.9878C39.5368 36.9878 39.0767 37.4461 39.0758 38.0137C39.0758 38.5815 39.5343 39.0389 40.103 39.0389C40.6711 39.0389 41.1285 38.5813 41.1285 38.0137ZM19.4914 43.3311C20.4214 34.7822 23.0434 33.0225 23.0434 33.0225C24.3563 31.5881 25.7779 30.6463 27.2385 30.0643C29.0543 32.7809 34.0947 40.9188 33.7385 47.0231C33.7223 47.2765 33.4147 47.6741 33.171 47.7563C30.488 48.6424 24.3945 49.6804 19.4914 43.3311Z" fill="#0084FF"/>
<path d="M48.947 9.37227C45.0979 9.37227 41.9823 9.37227 41.9823 9.37227L39.824 2.74485C38.6383 -0.915111 36.7051 -0.915111 35.5217 2.74485C34.3252 6.40694 33.3644 9.37227 33.3644 9.37227H26.3939C22.545 9.37227 21.9484 11.2101 25.0619 13.4708C28.1833 15.7278 30.7037 17.5647 30.7037 17.5647L28.5445 24.1922C27.3579 27.8534 28.919 28.9889 32.0388 26.726C35.1479 24.464 37.6706 22.6293 37.6706 22.6293L43.3066 26.726C46.4207 28.9871 47.9784 27.8534 46.7918 24.1922C45.6034 20.5301 44.641 17.5647 44.641 17.5647L50.2811 13.4708C53.3902 11.2101 52.7942 9.37227 48.947 9.37227Z" fill="#A300FF"/>
<path d="M86.657 55H81.7138L89.2457 33.1818H95.1903L102.712 55H97.7685L92.3033 38.1676H92.1328L86.657 55ZM86.348 46.424H98.0241V50.0249H86.348V46.424ZM113.072 55H105.338V33.1818H113.136C115.331 33.1818 117.22 33.6186 118.804 34.4922C120.387 35.3587 121.605 36.6051 122.458 38.2315C123.317 39.858 123.747 41.804 123.747 44.0696C123.747 46.3423 123.317 48.2955 122.458 49.929C121.605 51.5625 120.38 52.8161 118.782 53.6896C117.191 54.5632 115.288 55 113.072 55ZM109.951 51.0476H112.88C114.244 51.0476 115.391 50.8061 116.321 50.3232C117.259 49.8331 117.962 49.0767 118.431 48.054C118.907 47.0241 119.145 45.696 119.145 44.0696C119.145 42.4574 118.907 41.1399 118.431 40.1172C117.962 39.0945 117.262 38.3416 116.332 37.8587C115.402 37.3757 114.255 37.1342 112.891 37.1342H109.951V51.0476ZM147.214 44.0909C147.214 46.4702 146.763 48.4943 145.861 50.1634C144.966 51.8324 143.744 53.1072 142.196 53.9879C140.655 54.8615 138.922 55.2983 136.997 55.2983C135.058 55.2983 133.318 54.858 131.777 53.9773C130.236 53.0966 129.018 51.8217 128.123 50.1527C127.228 48.4837 126.78 46.4631 126.78 44.0909C126.78 41.7116 127.228 39.6875 128.123 38.0185C129.018 36.3494 130.236 35.0781 131.777 34.2045C133.318 33.3239 135.058 32.8835 136.997 32.8835C138.922 32.8835 140.655 33.3239 142.196 34.2045C143.744 35.0781 144.966 36.3494 145.861 38.0185C146.763 39.6875 147.214 41.7116 147.214 44.0909ZM142.537 44.0909C142.537 42.5497 142.306 41.25 141.844 40.1918C141.39 39.1335 140.747 38.331 139.916 37.7841C139.085 37.2372 138.112 36.9638 136.997 36.9638C135.882 36.9638 134.909 37.2372 134.078 37.7841C133.247 38.331 132.601 39.1335 132.139 40.1918C131.684 41.25 131.457 42.5497 131.457 44.0909C131.457 45.6321 131.684 46.9318 132.139 47.9901C132.601 49.0483 133.247 49.8509 134.078 50.3977C134.909 50.9446 135.882 51.218 136.997 51.218C138.112 51.218 139.085 50.9446 139.916 50.3977C140.747 49.8509 141.39 49.0483 141.844 47.9901C142.306 46.9318 142.537 45.6321 142.537 44.0909ZM150.631 55V33.1818H159.239C160.893 33.1818 162.303 33.4979 163.468 34.13C164.633 34.755 165.521 35.625 166.131 36.7401C166.749 37.848 167.058 39.1264 167.058 40.5753C167.058 42.0241 166.746 43.3026 166.121 44.4105C165.496 45.5185 164.59 46.3814 163.404 46.9993C162.225 47.6172 160.798 47.9261 159.121 47.9261H153.635V44.2294H158.376C159.263 44.2294 159.995 44.0767 160.57 43.7713C161.153 43.4588 161.586 43.0291 161.87 42.4822C162.161 41.9283 162.307 41.2926 162.307 40.5753C162.307 39.8509 162.161 39.2187 161.87 38.679C161.586 38.1321 161.153 37.7095 160.57 37.4112C159.988 37.1058 159.249 36.9531 158.354 36.9531H155.244V55H150.631ZM169.224 36.9851V33.1818H187.143V36.9851H180.463V55H175.903V36.9851H169.224Z" fill="#0084FF"/>
<path d="M190.094 55V33.1818H198.702C200.356 33.1818 201.766 33.4979 202.931 34.13C204.096 34.755 204.983 35.625 205.594 36.7401C206.212 37.848 206.521 39.1264 206.521 40.5753C206.521 42.0241 206.209 43.3026 205.584 44.4105C204.959 45.5185 204.053 46.3814 202.867 46.9993C201.688 47.6172 200.26 47.9261 198.584 47.9261H193.098V44.2294H197.839C198.726 44.2294 199.458 44.0767 200.033 43.7713C200.616 43.4588 201.049 43.0291 201.333 42.4822C201.624 41.9283 201.77 41.2926 201.77 40.5753C201.77 39.8509 201.624 39.2187 201.333 38.679C201.049 38.1321 200.616 37.7095 200.033 37.4112C199.451 37.1058 198.712 36.9531 197.817 36.9531H194.706V55H190.094ZM209.517 55V33.1818H224.219V36.9851H214.13V42.1839H223.463V45.9872H214.13V51.1967H224.262V55H209.517ZM227.056 36.9851V33.1818H244.975V36.9851H238.295V55H233.735V36.9851H227.056Z" fill="#A300FF"/>
</svg>
