<svg width="24" height="25" viewBox="0 0 24 25" fill="none" xmlns="http://www.w3.org/2000/svg">
<path d="M20.6303 17.9587C19.3359 16.5562 17.7651 15.437 16.0168 14.6715C14.2686 13.9059 12.3807 13.5107 10.4722 13.5107C8.56371 13.5107 6.67588 13.9059 4.92763 14.6715C3.17937 15.437 1.60858 16.5562 0.314167 17.9587C0.114322 18.1796 0.00253129 18.4663 0 18.7642V23.5975C0.00423597 23.9152 0.13341 24.2184 0.359559 24.4416C0.585708 24.6647 0.890635 24.7898 1.20833 24.7898H19.7361C20.0566 24.7898 20.3639 24.6625 20.5905 24.4359C20.8171 24.2093 20.9444 23.9019 20.9444 23.5814V18.7481C20.938 18.4557 20.8265 18.1755 20.6303 17.9587Z" fill="black"/>
<path d="M9.50022 12.2055C12.6145 12.2055 15.1391 9.68089 15.1391 6.56662C15.1391 3.45235 12.6145 0.927734 9.50022 0.927734C6.38594 0.927734 3.86133 3.45235 3.86133 6.56662C3.86133 9.68089 6.38594 12.2055 9.50022 12.2055Z" fill="black"/>
<path d="M20.5 6.76074C20.8094 6.76074 21.1062 6.88366 21.325 7.10245C21.5438 7.32124 21.6667 7.61799 21.6667 7.92741V9.09408H22.8333C23.1428 9.09408 23.4395 9.21699 23.6583 9.43578C23.8771 9.65458 24 9.95132 24 10.2607C24 10.5702 23.8771 10.8669 23.6583 11.0857C23.4395 11.3045 23.1428 11.4274 22.8333 11.4274H21.6667V12.5941C21.6667 12.9035 21.5438 13.2002 21.325 13.419C21.1062 13.6378 20.8094 13.7607 20.5 13.7607C20.1906 13.7607 19.8938 13.6378 19.675 13.419C19.4562 13.2002 19.3333 12.9035 19.3333 12.5941V11.4274H18.1667C17.8572 11.4274 17.5605 11.3045 17.3417 11.0857C17.1229 10.8669 17 10.5702 17 10.2607C17 9.95132 17.1229 9.65458 17.3417 9.43578C17.5605 9.21699 17.8572 9.09408 18.1667 9.09408H19.3333V7.92741C19.3333 7.61799 19.4562 7.32124 19.675 7.10245C19.8938 6.88366 20.1906 6.76074 20.5 6.76074Z" fill="#0D0D0D"/>
</svg>
