<svg width="189" height="68" viewBox="0 0 189 68" fill="none" xmlns="http://www.w3.org/2000/svg">
<path fill-rule="evenodd" clip-rule="evenodd" d="M37.7097 15.2851L37.0375 13.2128C48.0594 16.9802 56.0088 27.4327 56.0102 39.7144C56.0102 55.1558 43.447 67.7197 28.0053 67.7197C12.5635 67.7197 0 55.1558 0 39.7144C0 27.1598 8.30129 16.5099 19.7044 12.9648L18.9485 15.2842C18.5466 16.5248 18.4649 17.5881 18.6338 18.5051C10.499 22.1142 4.80376 30.2557 4.80376 39.7143C4.80376 43.236 5.61502 46.5621 7.02313 49.5553L7.79509 47.9571C7.79509 47.9571 14.2585 43.1325 14.2872 38.044C14.292 37.0579 14.3205 36.1453 14.3703 35.3031C16.9091 37.9563 19.7266 38.6459 21.9702 38.6459C23.5189 38.6459 24.7934 38.3174 25.5028 38.0823C26.2408 37.8389 26.8556 37.0406 26.8987 36.2674C27.1865 31.3525 23.5434 25.2078 21.906 22.715C25.5 21.9748 29.1432 23.59 31.0095 24.4174C31.3923 24.5871 31.7003 24.7236 31.9178 24.7999C33.6714 25.4131 33.8477 26.9046 33.8477 26.9046L40.0272 28.4133C40.7812 28.5968 41.4331 29.3746 41.3864 30.1492C40.964 37.1622 34.4727 38.8881 31.5594 39.3124C30.7925 39.4217 30.0985 40.0729 30.0187 40.8436L29.5489 45.4132L29.4914 45.9423C28.8767 45.7928 28.2223 45.6835 27.5376 45.6203C27.1146 45.1996 26.2235 44.1415 26.1455 42.634C26.1155 42.0518 25.8341 41.51 25.3921 41.1809C25.004 40.8909 24.5141 40.791 24.0473 40.906C22.5273 41.2814 20.7071 42.9203 20.501 48.5297C19.5445 49.167 17.6692 50.6769 16.3334 53.3928C15.6604 54.7597 15.0859 56.5706 14.8987 58.8436C15.2593 59.092 15.6344 59.3163 16.0102 59.541C16.0443 59.5614 16.0784 59.5818 16.1125 59.6022C16.5924 52.1236 21.7421 49.5139 21.7421 49.5139C21.8238 43.831 23.4687 42.5862 24.4381 42.3485C24.8142 42.2551 25.1034 42.6399 25.124 43.0271C25.2536 45.5821 27.1792 47.0626 27.1792 47.0626C30.806 47.2958 33.6113 48.9336 33.8458 50.9223C34.0201 52.4079 35.8651 54.3519 36.7814 55.2394C37.0599 55.5092 37.0632 55.9303 36.8152 56.2255C36.5131 56.5845 36.1008 57.1413 35.6573 57.938C34.7813 59.5184 32.6757 59.4009 32.6757 59.4009L28.1862 61.0853C27.8241 61.2202 27.544 61.6445 27.5613 62.0312L27.5985 62.8962C27.6608 62.8974 27.723 62.9022 27.7853 62.9069C27.8578 62.9125 27.9305 62.918 28.0039 62.918C40.7982 62.918 51.2072 52.5095 51.2072 39.7143C51.2072 30.4914 45.7838 22.5317 37.9698 18.7931C38.2222 17.8189 38.1526 16.6537 37.7097 15.2851ZM31.9719 52.0604C31.9719 51.6226 31.618 51.2705 31.182 51.2705C30.7462 51.2705 30.3928 51.6226 30.3928 52.0604C30.3928 52.4976 30.7462 52.8497 31.182 52.8497C31.618 52.8497 31.9719 52.4974 31.9719 52.0604ZM31.182 29.2533C31.182 28.8165 30.8298 28.4638 30.3928 28.4638C29.9571 28.4638 29.603 28.8165 29.6023 29.2533C29.6023 29.6902 29.9552 30.0423 30.3928 30.0423C30.83 30.0423 31.182 29.6901 31.182 29.2533ZM14.5314 33.3453C15.2471 26.7666 17.2648 25.4124 17.2648 25.4124C18.2751 24.3086 19.3691 23.5839 20.4931 23.136C21.8904 25.2265 25.7692 31.4889 25.4951 36.1864C25.4827 36.3814 25.2459 36.6874 25.0583 36.7507C22.9937 37.4325 18.3045 38.2313 14.5314 33.3453Z" fill="#0084FF"/>
<path d="M37.1988 7.21242C34.2368 7.21242 31.8392 7.21242 31.8392 7.21242L30.1783 2.11236C29.2659 -0.70412 27.7782 -0.70412 26.8676 2.11236C25.9468 4.93048 25.2074 7.21242 25.2074 7.21242H19.8433C16.8814 7.21242 16.4223 8.62669 18.8183 10.3664C21.2204 12.1033 23.1598 13.5168 23.1598 13.5168L21.4983 18.6169C20.5852 21.4343 21.7865 22.3082 24.1873 20.5668C26.5799 18.8261 28.5212 17.4142 28.5212 17.4142L32.8583 20.5668C35.2547 22.3068 36.4534 21.4343 35.5403 18.6169C34.6258 15.7988 33.8852 13.5168 33.8852 13.5168L38.2255 10.3664C40.6181 8.62669 40.1594 7.21242 37.1988 7.21242Z" fill="#A300FF"/>
<path d="M66.2185 42.0078H62.4145L68.2107 25.2179H72.7853L78.5732 42.0078H74.7692L70.5635 29.0546H70.4324L66.2185 42.0078ZM65.9807 35.4082H74.966V38.1792H65.9807V35.4082ZM86.546 42.0078H80.5941V25.2179H86.5951C88.284 25.2179 89.7378 25.554 90.9566 26.2262C92.1754 26.893 93.1127 27.8522 93.7686 29.1038C94.4299 30.3554 94.7606 31.853 94.7606 33.5964C94.7606 35.3454 94.4299 36.8484 93.7686 38.1055C93.1127 39.3625 92.1699 40.3272 90.9402 40.9994C89.7159 41.6717 88.2512 42.0078 86.546 42.0078ZM84.1439 38.9663H86.3984C87.4478 38.9663 88.3304 38.7804 89.0464 38.4088C89.7679 38.0317 90.3089 37.4496 90.6697 36.6626C91.0358 35.8701 91.2189 34.848 91.2189 33.5964C91.2189 32.3558 91.0358 31.3419 90.6697 30.5549C90.3089 29.7679 89.7706 29.1885 89.0546 28.8169C88.3386 28.4452 87.456 28.2594 86.4066 28.2594H84.1439V38.9663ZM112.819 33.6128C112.819 35.4438 112.472 37.0014 111.778 38.2858C111.089 39.5702 110.149 40.5513 108.958 41.229C107.772 41.9012 106.438 42.2374 104.957 42.2374C103.465 42.2374 102.126 41.8985 100.94 41.2208C99.754 40.5431 98.8166 39.562 98.128 38.2776C97.4393 36.9932 97.095 35.4383 97.095 33.6128C97.095 31.7819 97.4393 30.2242 98.128 28.9399C98.8166 27.6555 99.754 26.6772 100.94 26.0049C102.126 25.3272 103.465 24.9883 104.957 24.9883C106.438 24.9883 107.772 25.3272 108.958 26.0049C110.149 26.6772 111.089 27.6555 111.778 28.9399C112.472 30.2242 112.819 31.7819 112.819 33.6128ZM109.22 33.6128C109.22 32.4268 109.043 31.4267 108.687 30.6123C108.337 29.7979 107.843 29.1803 107.203 28.7595C106.564 28.3387 105.815 28.1282 104.957 28.1282C104.099 28.1282 103.35 28.3387 102.711 28.7595C102.071 29.1803 101.574 29.7979 101.219 30.6123C100.869 31.4267 100.694 32.4268 100.694 33.6128C100.694 34.7988 100.869 35.799 101.219 36.6134C101.574 37.4277 102.071 38.0453 102.711 38.4662C103.35 38.887 104.099 39.0974 104.957 39.0974C105.815 39.0974 106.564 38.887 107.203 38.4662C107.843 38.0453 108.337 37.4277 108.687 36.6134C109.043 35.799 109.22 34.7988 109.22 33.6128ZM115.449 42.0078V25.2179H122.073C123.346 25.2179 124.431 25.4611 125.328 25.9475C126.224 26.4285 126.907 27.098 127.377 27.9561C127.853 28.8087 128.09 29.7925 128.09 30.9074C128.09 32.0224 127.85 33.0062 127.369 33.8588C126.888 34.7114 126.191 35.3755 125.278 35.851C124.371 36.3264 123.273 36.5642 121.983 36.5642H117.761V33.7194H121.409C122.092 33.7194 122.655 33.6019 123.098 33.3669C123.546 33.1264 123.879 32.7958 124.098 32.3749C124.322 31.9486 124.434 31.4594 124.434 30.9074C124.434 30.35 124.322 29.8635 124.098 29.4481C123.879 29.0273 123.546 28.7021 123.098 28.4726C122.65 28.2375 122.081 28.12 121.392 28.12H118.999V42.0078H115.449ZM129.757 28.1446V25.2179H143.546V28.1446H138.406V42.0078H134.897V28.1446H129.757Z" fill="#0084FF"/>
<path d="M145.817 42.0078V25.2179H152.441C153.715 25.2179 154.8 25.4611 155.696 25.9475C156.592 26.4285 157.275 27.098 157.745 27.9561C158.221 28.8087 158.459 29.7925 158.459 30.9074C158.459 32.0224 158.218 33.0062 157.737 33.8588C157.256 34.7114 156.559 35.3755 155.647 35.851C154.739 36.3264 153.641 36.5642 152.351 36.5642H148.129V33.7194H151.777C152.46 33.7194 153.023 33.6019 153.466 33.3669C153.914 33.1264 154.247 32.7958 154.466 32.3749C154.69 31.9486 154.802 31.4594 154.802 30.9074C154.802 30.35 154.69 29.8635 154.466 29.4481C154.247 29.0273 153.914 28.7021 153.466 28.4726C153.018 28.2375 152.449 28.12 151.761 28.12H149.367V42.0078H145.817ZM160.764 42.0078V25.2179H172.078V28.1446H164.314V32.1454H171.496V35.0721H164.314V39.081H172.111V42.0078H160.764ZM174.261 28.1446V25.2179H188.05V28.1446H182.91V42.0078H179.401V28.1446H174.261Z" fill="#A300FF"/>
<path d="M61.8652 46.5988H144.366V48.1729H61.8652V46.5988Z" fill="#0084FF"/>
<path d="M144.358 46.5988H188.87V48.1729H144.358V46.5988Z" fill="#A300FF"/>
</svg>
